<?xml version="1.0" standalone="no"?>
<!DOCTYPE svg PUBLIC "-//W3C//DTD SVG 20010904//EN"
 "http://www.w3.org/TR/2001/REC-SVG-20010904/DTD/svg10.dtd">
<svg version="1.0" xmlns="http://www.w3.org/2000/svg"
 width="1024.000000pt" height="1024.000000pt" viewBox="0 0 1024.000000 1024.000000"
 preserveAspectRatio="xMidYMid meet">

<g transform="translate(0.000000,1024.000000) scale(0.100000,-0.100000)"
fill="#000000" stroke="none">
<path d="M2585 9238 c-74 -42 -54 -151 48 -260 45 -49 68 -48 148 5 74 50 109
96 109 144 0 68 -81 115 -141 82 -16 -8 -26 -5 -50 15 -33 28 -80 34 -114 14z"/>
<path d="M2225 9155 c-14 -13 -25 -32 -25 -41 0 -34 42 -104 83 -139 48 -41
80 -45 103 -10 13 20 14 32 5 75 -6 28 -18 64 -26 80 -32 62 -97 79 -140 35z"/>
<path d="M1922 8987 c-11 -12 -24 -41 -28 -64 -4 -28 -13 -45 -29 -53 -49 -26
-59 -97 -19 -137 24 -24 30 -25 92 -20 37 3 92 14 122 24 52 17 55 20 58 55 5
57 -25 159 -55 190 -36 37 -108 40 -141 5z"/>
<path d="M3051 8933 c-17 -15 -21 -31 -23 -98 l-3 -80 -255 4 c-172 2 -273 0
-312 -8 -76 -16 -131 -57 -160 -120 l-23 -50 -293 -3 -294 -3 -19 -24 c-18
-22 -19 -44 -19 -418 l0 -395 29 -29 29 -29 291 0 291 0 0 -119 c0 -138 8
-156 80 -172 24 -6 94 -9 155 -8 l110 3 3 -82 4 -82 -162 0 c-158 0 -161 -1
-185 -25 -24 -23 -25 -29 -25 -165 l0 -140 -84 0 c-125 0 -130 -6 -135 -159
l-3 -121 -109 0 -109 0 0 164 0 164 -32 21 c-18 11 -45 32 -61 46 -15 14 -31
23 -36 20 -17 -10 -174 -288 -232 -410 -297 -626 -424 -1185 -406 -1790 15
-498 112 -932 316 -1414 l61 -144 0 -632 0 -632 23 -21 c23 -22 24 -22 511
-22 l488 0 117 -84 c780 -561 1678 -839 2626 -813 634 17 1203 161 1770 447
234 118 423 236 647 402 l171 128 323 0 c293 0 328 2 386 20 140 43 255 165
294 315 16 59 18 162 3 224 -28 124 -134 258 -243 310 -87 42 -155 51 -373 51
l-193 0 0 220 0 220 140 0 140 0 0 -53 0 -52 52 -13 c65 -15 165 -62 223 -103
25 -18 47 -30 49 -28 2 2 27 47 56 99 157 289 300 712 359 1060 68 398 66 917
-5 1275 -56 284 -146 574 -253 812 -40 88 -41 94 -41 195 0 91 -3 109 -21 132
-19 24 -26 26 -95 26 l-74 0 0 655 0 655 75 0 c113 0 115 3 115 193 0 152 0
154 -26 178 -25 23 -31 24 -210 27 l-184 3 0 120 0 119 166 0 166 0 29 29 c16
16 29 39 29 51 0 34 -27 76 -57 89 -21 9 -190 11 -642 9 l-613 -3 -24 -28
c-26 -31 -31 -66 -12 -100 20 -38 40 -46 116 -47 l72 0 0 -119 0 -119 -96 -4
c-91 -3 -97 -5 -120 -31 -23 -27 -24 -34 -24 -171 0 -130 2 -146 21 -170 19
-24 26 -26 104 -26 l84 0 3 -27 c2 -16 2 -310 0 -655 l-2 -628 -79 0 c-63 0
-84 -4 -102 -19 l-24 -19 3 -516 3 -516 -61 0 c-56 0 -64 3 -90 31 -26 29 -32
31 -72 25 -24 -4 -58 -10 -76 -13 -18 -3 -35 -9 -38 -14 -3 -5 11 -33 32 -61
l37 -52 -21 -38 c-12 -20 -22 -41 -22 -45 0 -13 139 2 153 16 6 6 43 11 84 11
70 0 73 -1 73 -23 0 -13 -7 -47 -16 -77 -21 -71 -99 -149 -181 -181 -79 -31
-243 -33 -318 -3 l-50 20 -5 271 c-3 183 -9 276 -16 283 -6 7 -29 14 -50 17
-30 4 -45 0 -64 -15 -23 -19 -25 -27 -28 -126 l-4 -106 -919 0 c-505 0 -919 1
-920 3 0 1 -3 49 -6 107 -5 118 -12 130 -75 130 -25 0 -45 -7 -58 -20 -19 -19
-20 -33 -20 -305 0 -272 1 -286 20 -305 24 -24 77 -26 108 -4 21 14 22 23 22
130 l0 114 925 0 925 0 0 -104 c0 -58 4 -116 9 -130 6 -13 35 -43 66 -66 112
-83 219 -245 260 -395 9 -34 19 -118 22 -193 l6 -132 351 2 351 3 3 293 2 292
144 0 144 0 4 -99 c3 -80 7 -104 22 -120 26 -29 76 -28 104 2 20 21 22 34 22
120 l0 98 143 -3 142 -3 2 -270 c2 -148 3 -280 3 -293 0 -22 1 -22 133 -20
114 2 137 0 161 -15 64 -43 71 -137 13 -181 -25 -19 -45 -21 -170 -24 l-142
-3 3 -325 3 -324 -110 0 -111 0 0 35 c0 48 -21 94 -59 129 -38 36 -120 47
-167 23 -58 -30 -94 -92 -94 -162 l0 -32 -92 1 -93 1 -3 328 -2 327 -355 0
-354 0 -11 -42 c-32 -132 -78 -209 -144 -247 -75 -42 -132 -112 -226 -277 -90
-159 -128 -200 -192 -209 -24 -3 -329 -5 -678 -3 l-635 3 -3 110 c-4 149 2
145 -174 145 l-138 0 0 159 c0 154 -1 160 -22 175 -28 20 -78 21 -104 2 -17
-13 -20 -31 -24 -173 l-5 -158 -100 -6 c-55 -3 -112 -11 -126 -17 -44 -18 -95
-69 -120 -120 -23 -44 -24 -58 -24 -232 0 -182 1 -186 28 -237 28 -55 68 -91
133 -120 35 -16 83 -18 494 -21 451 -3 455 -3 478 18 30 28 30 89 1 116 -19
17 -36 19 -160 17 l-139 -3 0 90 0 89 683 3 682 3 55 26 c73 34 135 98 189
195 131 235 185 300 291 352 162 80 312 57 419 -64 71 -81 84 -131 89 -344 l4
-186 35 33 c20 17 65 45 99 60 35 15 64 33 64 40 0 10 26 13 100 13 l100 0 0
-220 0 -220 -320 0 -320 0 0 53 c0 31 -6 61 -16 75 -15 22 -17 22 -303 22
-334 0 -321 4 -321 -93 l0 -57 -32 -2 c-69 -3 -113 4 -130 22 -25 27 -68 32
-226 28 -97 -2 -144 -7 -155 -16 -12 -10 -17 -35 -19 -95 l-3 -82 -114 -3
c-86 -3 -116 0 -122 10 -5 7 -9 63 -9 125 0 145 2 143 -140 143 -134 0 -148
-9 -141 -95 3 -33 39 -55 87 -55 l44 0 0 -495 0 -495 -595 0 -594 0 -40 -52
c-57 -77 -99 -113 -166 -145 l-60 -28 -290 0 c-257 0 -297 2 -347 19 -88 29
-175 114 -194 190 l-6 26 441 0 c428 0 442 1 461 20 24 24 22 -15 24 390 l2
335 -28 28 c-24 25 -35 28 -75 26 l-48 -3 0 564 0 565 137 5 c104 4 141 9 152
20 11 12 15 79 19 343 6 412 22 377 -174 377 l-139 0 0 683 c0 751 1 741 -61
838 -54 85 -155 146 -283 170 -27 5 -185 9 -351 9 l-303 0 -4 61 c-2 43 1 63
10 66 6 3 162 3 345 0 358 -5 400 -10 497 -63 121 -66 204 -156 253 -275 22
-53 22 -64 27 -639 5 -538 6 -588 23 -613 22 -34 34 -37 197 -40 l135 -2 3
-322 2 -322 27 -21 c31 -24 74 -21 105 7 17 15 18 41 18 392 0 207 -4 381 -8
388 -15 24 -67 33 -198 33 -132 0 -134 0 -134 23 1 12 -1 252 -4 532 -5 528
-8 558 -50 659 -41 99 -149 224 -236 274 -25 14 -46 26 -48 27 -1 1 -3 148 -3
326 l0 324 76 0 c69 0 79 3 96 24 26 32 24 77 -6 106 -21 22 -33 25 -101 25
l-76 0 4 330 3 330 175 0 c188 0 254 11 312 51 78 53 106 111 110 222 3 74 0
89 -18 114 -28 37 -93 44 -123 14 -18 -18 -21 -34 -21 -100 0 -78 0 -79 -35
-110 l-36 -31 -242 0 c-179 0 -248 -3 -260 -12 -23 -18 -26 -64 -26 -460 l-1
-348 -114 0 -114 0 -4 55 c-5 60 -28 102 -69 122 -15 8 -70 13 -150 13 -137 0
-150 -5 -164 -62 -5 -21 -1 -33 19 -52 23 -24 32 -26 116 -26 l90 0 0 -129 c0
-71 -3 -136 -6 -145 -5 -13 -24 -16 -100 -16 -85 0 -94 -2 -108 -22 -23 -32
-20 -63 8 -95 24 -28 25 -28 149 -28 111 0 129 2 154 21 43 31 63 80 63 152
l0 62 33 0 c17 0 69 -3 115 -7 l82 -6 0 -263 0 -264 -315 0 -315 0 0 111 c0
109 0 111 -29 140 -28 27 -34 29 -110 29 l-81 0 0 144 c0 144 0 145 -26 165
-23 18 -41 21 -115 21 l-89 0 0 80 0 80 138 0 c230 0 242 9 242 190 l0 110
189 0 c189 0 190 0 220 26 l31 26 0 483 c0 460 -1 484 -19 506 -19 23 -24 24
-213 29 l-193 5 -3 80 c-3 91 -19 115 -77 115 -18 0 -42 -8 -54 -17z m5079
-353 l0 -120 -225 0 -225 0 0 120 0 120 225 0 225 0 0 -120z m-5360 61 c0 -11
8 -27 17 -37 15 -15 32 -16 150 -10 73 4 163 4 198 0 l65 -7 0 -378 0 -379
-695 0 -695 0 0 300 0 300 230 0 230 0 0 -52 c0 -29 6 -61 14 -70 19 -26 62
-39 90 -28 46 17 56 46 56 160 0 121 14 161 69 197 31 21 46 23 152 23 111 0
119 -1 119 -19z m673 -51 l37 0 0 -380 0 -380 -59 0 -59 0 -7 173 c-4 94 -4
263 -1 375 3 112 6 208 6 214 0 6 10 8 23 4 12 -3 39 -6 60 -6z m5105 -337
l-3 -48 -550 0 -550 0 -3 48 -4 47 557 0 556 0 -3 -47z m-371 -193 l183 0 0
-655 0 -655 -350 0 -349 0 -6 33 c-4 19 -5 47 -3 63 l3 29 94 3 c52 1 101 8
108 14 7 6 13 23 13 38 0 15 -6 32 -13 38 -7 6 -56 13 -108 14 -93 3 -94 3
-97 29 -3 25 0 27 55 34 32 4 62 9 67 12 17 11 -20 23 -71 23 -46 0 -53 3 -53
20 0 16 8 19 58 22 43 2 57 7 57 18 0 11 -14 16 -57 18 -54 3 -58 5 -58 27 0
25 0 25 103 25 112 0 127 6 127 52 0 38 -29 48 -141 48 -88 0 -89 0 -89 25 0
23 4 25 43 25 55 0 87 9 87 25 0 14 -43 25 -96 25 -22 0 -34 5 -34 14 0 18 22
26 76 26 24 0 44 5 44 10 0 6 -25 10 -55 10 -49 0 -55 2 -55 21 0 19 5 20 48
17 67 -4 69 16 2 22 -30 3 -54 8 -52 13 1 4 2 12 2 17 0 6 27 10 60 10 44 0
60 4 60 14 0 17 -50 28 -90 20 -27 -6 -30 -4 -30 20 l0 26 95 0 c90 0 96 1
104 23 9 24 4 48 -13 59 -6 4 -53 8 -104 8 -91 0 -93 1 -90 23 3 20 9 22 71
25 49 2 67 7 67 17 0 10 -20 16 -70 21 -59 6 -70 9 -70 25 0 17 9 19 109 19
102 0 111 2 125 22 20 29 20 34 -4 58 -17 17 -33 20 -119 20 -81 0 -100 3
-105 16 -8 22 -8 69 2 79 4 4 81 5 171 1 90 -3 247 -6 348 -6z m-5159 -395 c2
-2 1 -33 -3 -69 l-7 -66 -284 0 -284 0 0 69 0 70 48 4 c52 4 525 -3 530 -8z
m-158 -685 l0 -90 -215 0 -215 0 0 90 0 90 215 0 215 0 0 -90z m210 -320 l0
-70 -61 0 c-98 0 -99 -1 -99 -140 l0 -120 -210 0 -210 0 0 124 c0 97 -3 125
-14 129 -8 3 -66 7 -130 8 l-116 2 0 69 0 68 420 0 420 0 0 -70z m5480 -155
l0 -95 -550 0 -550 0 0 95 0 95 550 0 550 0 0 -95z m-6230 -110 l0 -65 -202 0
c-112 0 -229 -4 -262 -10 -75 -12 -172 -57 -225 -105 -49 -44 -51 -35 -11 46
54 107 142 173 253 189 29 4 141 8 250 9 l197 1 0 -65z m6210 -685 l0 -540
-525 0 -525 0 -2 541 c-2 297 -2 541 -1 542 1 1 238 1 527 -1 l526 -2 0 -540z
m-4837 418 c66 -30 116 -78 150 -142 l32 -61 0 -1615 0 -1615 -28 -57 c-30
-61 -74 -105 -140 -140 l-42 -23 -865 -3 c-790 -2 -869 -1 -918 14 -71 23
-151 95 -183 166 l-24 53 0 1605 0 1605 24 52 c25 56 102 136 148 154 65 25
148 27 958 26 783 -2 853 -3 888 -19z m547 -1873 l0 -215 -80 0 -80 0 0 215 0
215 80 0 80 0 0 -215z m640 -940 l0 -225 -207 0 c-227 0 -271 7 -303 48 -20
25 -21 36 -18 190 l3 164 28 24 c28 24 29 24 263 24 l234 0 0 -225z m2180
-497 c0 -163 6 -178 71 -178 49 0 69 27 69 92 l0 48 83 0 c1231 3 1149 5 1198
-17 188 -84 231 -345 79 -487 -83 -77 -70 -76 -756 -76 l-603 0 -3 165 c-3
177 -3 177 -56 191 -16 4 -33 0 -50 -13 l-27 -20 -3 -247 -2 -246 -175 0 -175
0 0 465 0 465 175 0 175 0 0 -142z m-790 -308 l0 -350 -60 0 -60 0 0 350 0
350 60 0 60 0 0 -350z m290 -10 l0 -280 -75 0 -75 0 0 280 0 280 75 0 75 0 0
-280z m-560 41 l0 -128 -37 -7 c-49 -8 -128 -8 -176 0 l-38 7 2 121 c0 66 3
124 6 129 2 4 58 7 124 7 l119 0 0 -129z m-1920 -196 l0 -225 -1240 0 -1240 0
0 155 0 156 46 -35 c63 -48 138 -84 203 -96 76 -14 1787 -14 1867 1 130 23
261 115 325 227 13 23 27 42 32 42 4 0 7 -101 7 -225z m1920 -199 c0 -97 2
-106 22 -120 14 -10 44 -16 75 -16 48 0 54 -2 63 -26 12 -29 4 -86 -16 -124
-22 -43 -83 -98 -130 -116 -76 -29 -198 -9 -248 41 -14 14 -16 48 -16 234 0
120 3 221 7 224 3 4 60 7 125 7 l118 0 0 -104z"/>
<path d="M2825 8428 c-33 -18 -35 -28 -35 -158 0 -69 -3 -142 -6 -162 l-7 -38
-173 0 -174 0 0 43 c0 30 -6 49 -18 60 -25 23 -84 21 -113 -2 -21 -17 -23 -26
-21 -92 1 -68 4 -76 32 -101 l30 -28 268 0 c351 1 332 -14 332 254 0 96 -3
182 -6 191 -7 17 -54 45 -76 45 -7 0 -22 -6 -33 -12z"/>
<path d="M1920 8140 l0 -120 90 0 90 0 0 120 0 120 -90 0 -90 0 0 -120z"/>
<path d="M7910 6051 c-93 -29 -177 -101 -219 -190 -22 -47 -26 -70 -26 -141 0
-112 26 -170 107 -245 132 -123 321 -123 456 0 51 45 98 138 107 209 19 151
-89 319 -232 362 -49 15 -152 17 -193 5z m163 -155 c127 -55 157 -219 58 -309
-39 -35 -93 -57 -141 -57 -40 0 -111 41 -144 83 -28 35 -31 46 -31 106 0 57 4
74 28 110 47 71 151 101 230 67z"/>
<path d="M2062 5869 c-145 -72 -159 -295 -24 -380 l46 -29 181 0 c204 0 215 4
215 72 0 62 -16 68 -186 68 -179 0 -194 6 -194 75 0 34 5 47 19 55 13 6 233
10 645 10 613 0 626 0 646 -20 46 -46 11 -120 -56 -120 -47 0 -70 -13 -82 -47
-31 -91 103 -134 209 -67 63 40 93 95 97 178 4 85 -20 142 -81 190 l-39 31
-676 3 c-674 2 -677 2 -720 -19z"/>
<path d="M2695 4923 c-3 -49 -7 -97 -8 -108 -2 -17 -9 -20 -50 -20 l-48 0 -41
98 c-27 64 -46 97 -56 97 -9 0 -42 -8 -74 -17 -57 -17 -58 -18 -52 -48 3 -16
19 -64 35 -104 16 -41 27 -76 26 -76 -1 -1 -40 -24 -86 -51 -46 -27 -100 -64
-122 -82 l-38 -33 -56 46 c-96 78 -102 81 -126 59 -12 -11 -34 -35 -50 -55
l-28 -36 70 -76 70 -77 -38 -77 c-22 -43 -45 -93 -51 -112 -11 -30 -15 -33
-42 -27 -17 3 -66 9 -109 12 l-79 7 -15 -69 c-9 -37 -15 -69 -14 -70 1 -2 49
-12 105 -23 57 -12 107 -23 110 -25 4 -2 7 -55 7 -117 l0 -112 -79 -33 c-44
-19 -84 -38 -89 -43 -15 -15 33 -131 54 -131 14 0 91 24 141 45 15 6 17 -13
20 -232 l3 -239 38 -77 c88 -178 258 -285 491 -309 56 -6 187 -8 291 -6 174 5
197 7 270 32 137 47 223 110 294 217 70 104 81 160 81 394 l0 203 58 -23 c104
-41 96 -44 125 33 15 37 27 70 27 73 0 4 -38 23 -85 44 -71 32 -84 41 -79 57
3 10 7 62 9 116 4 110 -11 95 133 133 51 13 82 26 82 35 0 7 -9 38 -21 69 -24
64 -22 63 -139 34 -45 -11 -83 -19 -84 -17 -10 18 -65 152 -63 153 22 14 126
97 136 109 11 13 8 23 -18 65 -52 80 -50 80 -135 17 -42 -31 -77 -56 -79 -56
-2 0 -14 14 -26 31 l-23 31 29 31 c16 18 47 54 68 80 l38 48 -49 50 c-26 27
-53 49 -59 49 -6 0 -44 -36 -83 -80 l-73 -79 -57 34 c-31 19 -96 49 -144 66
l-88 32 0 107 c0 123 3 120 -97 120 l-51 0 -7 -87z m96 -350 c326 -515 375
-620 367 -801 -3 -87 -7 -105 -40 -174 -117 -246 -401 -339 -642 -210 -71 38
-167 136 -198 202 -73 158 -62 300 42 515 67 138 353 615 369 615 5 0 50 -66
102 -147z m475 -1357 c-29 -99 -113 -179 -231 -222 -71 -26 -479 -33 -578 -10
-129 30 -231 101 -277 193 -20 39 -25 67 -28 148 l-4 100 54 -51 c97 -94 212
-157 333 -185 83 -19 278 -14 366 9 124 33 259 112 344 202 l30 31 3 -81 c2
-52 -3 -101 -12 -134z"/>
<path d="M2678 4133 c-31 -36 -181 -269 -204 -318 -30 -62 -32 -152 -5 -210
39 -88 138 -141 244 -133 76 6 134 34 179 88 58 67 71 137 40 225 -17 48 -219
365 -232 365 -4 0 -14 -8 -22 -17z"/>
<path d="M4539 3401 c-34 -34 -39 -44 -39 -85 0 -75 48 -126 120 -126 63 0
130 60 130 118 0 71 -62 132 -134 132 -31 0 -45 -7 -77 -39z"/>
<path d="M6783 2776 c-37 -31 -46 -69 -28 -113 37 -89 175 -55 175 43 0 44
-35 83 -81 90 -28 5 -41 1 -66 -20z"/>
<path d="M6784 2405 c-75 -52 -35 -175 56 -175 35 0 80 53 80 93 0 49 -8 66
-41 82 -36 19 -69 19 -95 0z"/>
<path d="M4800 8843 c-252 -17 -602 -82 -862 -158 l-127 -37 30 -61 c23 -44
34 -84 42 -153 l11 -94 131 0 131 0 28 65 c36 82 120 163 203 196 46 18 78 23
158 23 92 1 106 -2 167 -31 127 -60 221 -181 235 -303 11 -100 15 -101 99 -21
131 125 232 185 376 222 110 29 256 29 345 1 59 -19 65 -19 105 -4 31 12 79
16 173 17 109 0 142 -4 205 -23 132 -41 255 -113 363 -212 l56 -51 64 44 c65
45 114 67 197 88 l45 11 -115 57 c-472 234 -978 375 -1505 421 -109 9 -444 11
-555 3z"/>
<path d="M5555 8292 c-59 -13 -206 -65 -219 -78 -11 -10 -14 -28 -11 -57 2
-23 7 -82 9 -132 l5 -90 -30 -17 c-34 -20 -55 -23 -61 -9 -6 17 -122 91 -142
91 -31 0 -126 -86 -126 -115 0 -26 34 -108 62 -147 l19 -27 -35 -38 -34 -38
-69 18 c-105 27 -210 45 -221 38 -27 -18 -112 -197 -112 -237 0 -20 76 -100
160 -169 60 -49 66 -58 62 -85 -3 -23 -11 -32 -31 -36 -69 -16 -110 -26 -153
-40 l-48 -16 0 -84 0 -83 53 -15 c28 -8 79 -20 112 -28 57 -12 60 -15 63 -45
3 -28 -7 -41 -93 -124 -132 -128 -132 -127 -91 -221 47 -108 74 -148 99 -148
12 0 79 14 148 31 l127 33 26 -30 c14 -16 26 -34 26 -41 0 -6 -16 -44 -35 -84
-19 -41 -35 -81 -35 -90 0 -9 25 -40 57 -69 46 -42 61 -50 81 -45 28 7 101 55
121 79 17 20 32 20 69 -1 l30 -17 -5 -137 -6 -137 29 -15 c56 -29 215 -67 235
-56 10 5 51 63 90 129 l70 120 63 0 c74 0 71 3 148 -130 82 -140 73 -136 204
-99 162 46 148 27 141 193 l-7 142 35 17 c34 16 35 16 67 -11 108 -93 123 -95
197 -26 34 31 61 62 61 68 0 7 -18 50 -40 96 l-41 83 27 29 c33 34 37 34 143
3 46 -14 105 -28 131 -31 l48 -6 27 47 c16 26 40 77 55 114 34 83 33 85 -94
210 -83 81 -96 98 -96 127 0 30 3 34 38 40 106 18 176 35 188 45 19 16 19 152
1 168 -8 6 -58 22 -113 37 -54 14 -102 31 -106 38 -16 24 -7 55 25 81 78 64
187 180 187 198 0 28 -78 202 -99 221 -16 15 -25 15 -112 -4 -52 -10 -110 -24
-129 -30 -53 -15 -63 -13 -92 23 l-26 34 34 69 c51 106 52 115 8 164 -21 23
-50 48 -64 55 -26 13 -32 12 -86 -21 -33 -20 -68 -44 -80 -55 -25 -24 -29 -24
-63 0 l-27 20 4 139 4 139 -35 16 c-34 17 -133 48 -189 61 -32 7 -57 -20 -138
-153 l-55 -90 -70 -1 -71 0 -66 103 c-76 116 -104 145 -133 139z m364 -573
c268 -43 495 -247 567 -509 28 -101 25 -284 -4 -375 -63 -189 -195 -343 -365
-424 -183 -87 -461 -78 -636 21 -166 95 -286 254 -331 440 -40 165 -19 326 62
488 92 183 294 331 492 360 76 11 144 11 215 -1z"/>
<path d="M1887 7536 c-21 -8 -47 -22 -58 -32 -27 -24 -25 -75 5 -103 35 -33
77 -30 130 10 55 41 74 79 58 114 -10 21 -18 25 -54 25 -24 -1 -60 -7 -81 -14z"/>
<path d="M2083 7413 c-7 -2 -35 -32 -63 -65 -38 -45 -50 -68 -50 -92 0 -64 67
-102 130 -76 40 17 51 39 61 124 11 97 -16 135 -78 109z"/>
<path d="M5522 5219 c-56 -22 -161 -91 -167 -109 -10 -32 12 -59 61 -71 49
-13 68 -39 95 -127 l12 -42 -42 -36 c-23 -20 -67 -68 -97 -105 -35 -44 -62
-69 -75 -69 -33 0 -90 28 -130 65 -45 41 -80 45 -101 13 -16 -25 -58 -163 -58
-189 0 -29 34 -47 124 -64 50 -9 105 -23 123 -30 29 -12 33 -19 33 -50 0 -35
-3 -37 -62 -64 -35 -16 -76 -31 -93 -35 -67 -15 -85 -27 -85 -58 0 -56 78
-188 112 -188 11 0 47 26 81 59 65 64 106 88 130 74 9 -4 47 -35 86 -68 78
-67 81 -75 53 -159 -14 -41 -23 -51 -51 -61 -38 -12 -81 -57 -81 -84 0 -10 11
-28 24 -40 32 -30 162 -80 208 -81 45 0 58 19 58 86 0 30 11 76 32 125 l31 77
49 6 c63 9 71 2 120 -98 27 -57 38 -93 38 -126 0 -53 13 -70 52 -70 30 0 155
52 200 82 55 38 44 88 -24 110 -48 16 -77 57 -100 141 l-13 49 35 29 c99 84
97 83 140 70 22 -6 69 -32 105 -56 75 -52 107 -56 131 -20 18 28 64 148 64
169 0 33 -27 48 -104 57 -54 6 -92 16 -122 34 l-44 26 0 69 0 70 41 21 c23 11
73 27 113 35 70 15 106 35 106 60 0 20 -65 163 -84 185 -25 30 -54 23 -94 -22
-45 -49 -80 -69 -124 -69 -27 0 -47 13 -107 70 l-73 69 7 48 c12 88 15 94 61
113 23 10 50 31 60 45 17 26 16 27 -7 50 -24 23 -170 75 -213 75 -33 0 -56
-31 -56 -74 0 -38 -34 -152 -52 -173 -6 -7 -32 -13 -59 -13 -41 0 -50 4 -67
28 -35 49 -59 106 -72 164 -6 32 -18 65 -26 73 -17 17 -66 19 -102 4z m353
-513 c60 -26 104 -66 132 -124 82 -167 -26 -351 -206 -352 -84 0 -130 18 -187
75 -53 53 -74 104 -74 182 0 79 72 183 150 217 45 19 141 20 185 2z"/>
<path d="M7946 4684 c-14 -13 -16 -62 -16 -379 0 -362 0 -364 22 -385 12 -11
28 -20 35 -20 23 0 70 28 77 45 3 9 6 174 6 366 0 336 -1 350 -20 369 -24 24
-82 27 -104 4z"/>
<path d="M6940 3727 c-28 -23 -117 -132 -134 -164 -9 -17 -13 -38 -11 -45 8
-19 58 -48 84 -48 20 0 21 -5 21 -94 0 -87 2 -96 22 -110 12 -9 36 -16 53 -16
17 0 41 7 53 16 20 14 22 23 22 115 l0 99 38 0 c47 0 77 27 67 60 -8 26 -119
165 -148 185 -26 18 -47 19 -67 2z"/>
<path d="M4431 2714 c-20 -25 -21 -40 -21 -219 0 -210 7 -247 49 -264 19 -8
150 -11 440 -9 l413 3 19 24 c17 21 19 41 19 237 0 206 -1 214 -22 234 -21 19
-33 20 -449 20 l-428 0 -20 -26z m467 -232 l-3 -117 -140 -2 c-77 -1 -152 1
-167 4 l-28 5 0 112 c0 62 2 115 4 117 2 2 79 3 171 1 l166 -3 -3 -117z m300
1 l-3 -118 -77 -3 -78 -3 0 121 0 120 80 0 81 0 -3 -117z"/>
</g>
</svg>
